<?xml version="1.0" encoding="utf-8"?>
<!-- Generator: Adobe Illustrator 14.0.0, SVG Export Plug-In . SVG Version: 6.00 Build 43363)  -->
<!DOCTYPE svg PUBLIC "-//W3C//DTD SVG 1.1//EN" "http://www.w3.org/Graphics/SVG/1.1/DTD/svg11.dtd">
<svg version="1.1" id="Layer_4" xmlns="http://www.w3.org/2000/svg" xmlns:xlink="http://www.w3.org/1999/xlink" x="0px" y="0px"
	 width="34px" height="34px" viewBox="0 0 34 34" enable-background="new 0 0 34 34" xml:space="preserve">
<g>
	<polygon fill="#FFFFFF" points="1.085,31.318 1.085,20.308 6.475,12.805 7.818,11.461 30.645,11.47 30.965,11.791 30.965,17.804 
		30.979,25.749 30.547,26.18 27.266,26.18 27.266,31.598 26.359,32.505 2.276,32.509 	"/>
	<path d="M8.267,12.546l21.614,0.008v5.253l0.012,7.287H28.35h-2.17v2.17v3.884l-0.271,0.271h-8.992h-3.604L2.725,31.424
		l-0.556-0.556V20.657l5.135-7.147L8.267,12.546 M7.369,10.376L5.645,12.1L0,19.958v11.809l1.827,1.827l11.488-0.004h3.602h9.893
		l1.541-1.543v-4.782h2.646l1.068-1.068l-0.014-8.393v-6.462l-0.957-0.957L7.369,10.376L7.369,10.376z"/>
</g>
<g>
	
		<rect x="10.378" y="4.409" transform="matrix(-0.8938 0.4485 -0.4485 -0.8938 39.9283 9.9816)" fill="#FFFFFF" width="16.809" height="10.62"/>
	<path d="M23.475,2.527l3.877,7.729l-13.261,6.655l-3.878-7.729L23.475,2.527 M24.352-0.12L7.565,8.303l5.648,11.255L30,11.134
		L24.352-0.12L24.352-0.12z"/>
</g>
<g>
	<path fill="#FFFFFF" d="M20.064,20.149c-3.43,0-6.221-2.79-6.221-6.22s2.791-6.221,6.221-6.221s6.221,2.791,6.221,6.221
		S23.494,20.149,20.064,20.149L20.064,20.149z"/>
	<path d="M20.064,8.694c2.887,0,5.234,2.349,5.234,5.235s-2.348,5.234-5.234,5.234s-5.234-2.348-5.234-5.234
		S17.178,8.694,20.064,8.694 M20.064,6.722c-3.98,0-7.207,3.227-7.207,7.207c0,3.98,3.227,7.207,7.207,7.207
		s7.207-3.227,7.207-7.207C27.271,9.948,24.045,6.722,20.064,6.722L20.064,6.722z"/>
</g>
<polyline fill="#FFFFFF" stroke="#000000" stroke-width="2.1697" points="7.209,16.909 13.414,14.22 15.723,15.564 20.17,28.283 
	19.549,29.523 13.689,31.522 12.104,31.04 8.519,21.216 "/>
<g>
	<path d="M23.141,15.863c0,0.217-0.078,0.403-0.232,0.558s-0.34,0.231-0.557,0.231h-1.135c-0.111,0-0.205,0.038-0.279,0.113
		c-0.076,0.075-0.113,0.169-0.113,0.281v0.788c0,0.112-0.039,0.206-0.113,0.281c-0.076,0.075-0.17,0.113-0.281,0.113h-0.789
		c-0.111,0-0.205-0.038-0.281-0.113s-0.113-0.169-0.113-0.281v-0.788c0-0.112-0.039-0.206-0.113-0.281
		c-0.076-0.075-0.17-0.113-0.281-0.113h-1.527c-0.113,0-0.205-0.038-0.281-0.113s-0.113-0.169-0.113-0.281
		c0-0.111,0.037-0.205,0.113-0.281c0.076-0.075,0.168-0.113,0.281-0.113h3.844c0.111,0,0.205-0.037,0.281-0.113
		c0.076-0.075,0.113-0.169,0.113-0.28V14.68c0-0.111-0.037-0.205-0.113-0.281s-0.17-0.114-0.281-0.114h-3.449
		c-0.217,0-0.404-0.077-0.559-0.231c-0.154-0.154-0.23-0.34-0.23-0.557V11.92c0-0.217,0.076-0.402,0.23-0.557
		c0.154-0.155,0.342-0.232,0.559-0.232h1.133c0.111,0,0.205-0.038,0.281-0.113c0.074-0.076,0.113-0.169,0.113-0.281V9.948
		c0-0.111,0.037-0.205,0.113-0.281c0.076-0.075,0.17-0.113,0.281-0.113h0.789c0.111,0,0.205,0.038,0.281,0.113
		c0.074,0.076,0.113,0.169,0.113,0.281v0.789c0,0.112,0.037,0.206,0.113,0.281c0.074,0.076,0.168,0.113,0.279,0.113h1.529
		c0.111,0,0.205,0.038,0.281,0.113c0.074,0.076,0.113,0.169,0.113,0.281s-0.039,0.206-0.113,0.281
		c-0.076,0.076-0.17,0.113-0.281,0.113h-3.057c-0.111,0-0.205,0.038-0.281,0.113c-0.074,0.076-0.113,0.169-0.113,0.281v0.789
		c0,0.112,0.039,0.206,0.113,0.281c0.076,0.076,0.17,0.114,0.281,0.114h2.662c0.217,0,0.402,0.077,0.557,0.231
		s0.232,0.34,0.232,0.557V15.863z"/>
</g>
</svg>
